<svg width="160" height="160" viewBox="0 0 160 160" fill="none" xmlns="http://www.w3.org/2000/svg">
  <g opacity="0.45">
    <path d="M80 120C53.4903 120 32 98.5097 32 72V65C56.8528 65 79.0729 76.8878 93.1384 95.3378C101.039 105.701 105.6 117.56 105.6 130C96.9309 123.584 88.2407 120 80 120Z" fill="#CFAEFF"/>
  </g>
  <g opacity="0.58">
    <path d="M80.0001 120C58.9087 120 41.8125 102.904 41.8125 81.8124V51.9999C65.5007 51.9999 84.5296 68.2872 94.799 88.4972C99.5155 97.78 102.4 108.277 102.4 119.449C95.1904 119.82 87.633 120 80.0001 120Z" fill="#DFC6FF"/>
  </g>
  <g opacity="0.7">
    <path d="M80 119.999C61.667 119.999 46.7998 105.132 46.7998 86.799V52.5965C46.7998 35.7004 60.4942 22.006 77.3903 22.006C79.1495 22.006 80.5734 23.4299 80.5734 25.1891V119.999H80Z" fill="#ECD7FF"/>
  </g>
  <g opacity="0.82">
    <path d="M80.0001 120C98.3331 120 113.2 105.133 113.2 86.8V52.5975C113.2 35.7013 99.5058 22.0069 82.6097 22.0069C80.8505 22.0069 79.4266 23.4308 79.4266 25.19V120H80.0001Z" fill="#F2E4FF"/>
  </g>
  <path d="M80 120C106.51 120 128 98.5098 128 72V65C103.147 65 80.9271 76.8878 66.8616 95.3378C58.9608 105.701 54.4 117.56 54.4 130C63.0691 123.584 71.7593 120 80 120Z" fill="#FAF7FF"/>
</svg>
